RBDS04runT35_grf
version=1
nRows=21
nColumns=19
inDegrees=no
endheader
time	ground_force_r_vx	ground_force_r_vy	ground_force_r_vz	ground_force_r_px	ground_force_r_py	ground_force_r_pz	ground_force_r_mx	ground_force_r_my	ground_force_r_mz	ground_force_l_vx	ground_force_l_vy	ground_force_l_vz	ground_force_l_px	ground_force_l_py	ground_force_l_pz	ground_force_l_mx	ground_force_l_my	ground_force_l_mz
     14.99900000	    -85.33511539	   1521.75524664	    -35.70422880	      2.23710231	      0.00000000	      1.02696607	      0.00000000	      6.15828508	     -0.00000000	      0.00000000	      0.00000000	      0.00000000	      0.00000000	      0.00000000	      0.00000000	      0.00000000	      0.00000000	      0.00000000
     15.00000000	    -80.01567030	   1521.45651396	    -35.86661589	      2.23410139	      0.00000000	      1.02699218	      0.00000000	      6.26658578	     -0.00000000	      0.00000000	      0.00000000	      0.00000000	      0.00000000	      0.00000000	      0.00000000	      0.00000000	      0.00000000	      0.00000000
     15.00100000	    -74.43829559	   1519.85969985	    -35.94340668	      2.23107047	      0.00000000	      1.02701974	      0.00000000	      6.35883021	     -0.00000000	      0.00000000	      0.00000000	      0.00000000	      0.00000000	      0.00000000	      0.00000000	      0.00000000	      0.00000000	      0.00000000
     15.00200000	    -68.86092089	   1518.26288574	    -36.02019746	      2.22803954	      0.00000000	      1.02704729	      0.00000000	      6.45107464	     -0.00000000	      0.00000000	      0.00000000	      0.00000000	      0.00000000	      0.00000000	      0.00000000	      0.00000000	      0.00000000	      0.00000000
     15.00300000	    -63.28354618	   1516.66607163	    -36.09698825	      2.22500862	      0.00000000	      1.02707484	      0.00000000	      6.54331907	     -0.00000000	      0.00000000	      0.00000000	      0.00000000	      0.00000000	      0.00000000	      0.00000000	      0.00000000	      0.00000000	      0.00000000
     15.00400000	    -57.57346919	   1514.20821636	    -36.10886958	      2.22195953	      0.00000000	      1.02710123	      0.00000000	      6.62430731	     -0.00000000	      0.00000000	      0.00000000	      0.00000000	      0.00000000	      0.00000000	      0.00000000	      0.00000000	      0.00000000	      0.00000000
     15.00500000	    -51.79704105	   1511.31984051	    -36.08829619	      2.21890136	      0.00000000	      1.02712703	      0.00000000	      6.69966746	     -0.00000000	      0.00000000	      0.00000000	      0.00000000	      0.00000000	      0.00000000	      0.00000000	      0.00000000	      0.00000000	      0.00000000
     15.00600000	    -46.02061292	   1508.43146467	    -36.06772280	      2.21584320	      0.00000000	      1.02715284	     -0.00000000	      6.77502760	     -0.00000000	      0.00000000	      0.00000000	      0.00000000	      0.00000000	      0.00000000	      0.00000000	      0.00000000	      0.00000000	      0.00000000
     15.00700000	    -40.19807139	   1505.11572110	    -36.01175904	      2.21277656	      0.00000000	      1.02717711	     -0.00000000	      6.84459513	     -0.00000000	      0.00000000	      0.00000000	      0.00000000	      0.00000000	      0.00000000	      0.00000000	      0.00000000	      0.00000000	      0.00000000
     15.00800000	    -34.28330310	   1500.94524211	    -35.88501453	      2.20969299	      0.00000000	      1.02719830	     -0.00000000	      6.90257742	     -0.00000000	      0.00000000	      0.00000000	      0.00000000	      0.00000000	      0.00000000	      0.00000000	      0.00000000	      0.00000000	      0.00000000
     15.00900000	    -28.36853481	   1496.77476312	    -35.75827002	      2.20660942	      0.00000000	      1.02721949	     -0.00000000	      6.96055972	     -0.00000000	      0.00000000	      0.00000000	      0.00000000	      0.00000000	      0.00000000	      0.00000000	      0.00000000	      0.00000000	      0.00000000
     15.01000000	    -22.45376652	   1492.60428412	    -35.63152552	      2.20352585	      0.00000000	      1.02724068	     -0.00000000	      7.01854201	     -0.00000000	      0.00000000	      0.00000000	      0.00000000	      0.00000000	      0.00000000	      0.00000000	      0.00000000	      0.00000000	      0.00000000
     15.01100000	    -16.46260314	   1487.16512974	    -35.39303007	      2.20041775	      0.00000000	      1.02725479	     -0.00000000	      7.05900745	     -0.00000000	      0.00000000	      0.00000000	      0.00000000	      0.00000000	      0.00000000	      0.00000000	      0.00000000	      0.00000000	      0.00000000
     15.01200000	    -10.47143977	   1481.72597536	    -35.15453462	      2.19730965	      0.00000000	      1.02726891	     -0.00000000	      7.09947290	     -0.00000000	      0.00000000	      0.00000000	      0.00000000	      0.00000000	      0.00000000	      0.00000000	      0.00000000	      0.00000000	      0.00000000
     15.01300000	     -4.48027639	   1476.28682098	    -34.91603917	      2.19420154	      0.00000000	      1.02728302	     -0.00000000	      7.13993835	     -0.00000000	      0.00000000	      0.00000000	      0.00000000	      0.00000000	      0.00000000	      0.00000000	      0.00000000	      0.00000000	      0.00000000
     15.01400000	      1.52003376	   1470.01411540	    -34.60156450	      2.19107707	      0.00000000	      1.02729111	     -0.00000000	      7.16887350	     -0.00000000	      0.00000000	      0.00000000	      0.00000000	      0.00000000	      0.00000000	      0.00000000	      0.00000000	      0.00000000	      0.00000000
     15.01500000	      7.52491729	   1463.32463423	    -34.24910023	      2.18794442	      0.00000000	      1.02729618	     -0.00000000	      7.19204350	     -0.00000000	      0.00000000	      0.00000000	      0.00000000	      0.00000000	      0.00000000	      0.00000000	      0.00000000	      0.00000000	      0.00000000
     15.01600000	     13.52980082	   1456.63515305	    -33.89663595	      2.18481177	      0.00000000	      1.02730125	     -0.00000000	      7.21521351	     -0.00000000	      0.00000000	      0.00000000	      0.00000000	      0.00000000	      0.00000000	      0.00000000	      0.00000000	      0.00000000	      0.00000000
     15.01700000	     19.51827052	   1449.53694973	    -33.50656847	      2.18167067	      0.00000000	      1.02730283	     -0.00000000	      7.23280863	     -0.00000000	      0.00000000	      0.00000000	      0.00000000	      0.00000000	      0.00000000	      0.00000000	      0.00000000	      0.00000000	      0.00000000
     15.01800000	     25.47391258	   1441.62130211	    -33.04129457	      2.17851268	      0.00000000	      1.02729745	     -0.00000000	      7.23925399	     -0.00000000	      0.00000000	      0.00000000	      0.00000000	      0.00000000	      0.00000000	      0.00000000	      0.00000000	      0.00000000	      0.00000000
     15.01900000	     31.42955463	   1433.70565450	    -32.57602066	      2.17535469	      0.00000000	      1.02729206	     -0.00000000	      7.24569935	     -0.00000000	      0.00000000	      0.00000000	      0.00000000	      0.00000000	      0.00000000	      0.00000000	      0.00000000	      0.00000000	      0.00000000
